<!DOCTYPE svg PUBLIC "-//W3C//DTD SVG 20010904//EN" "http://www.w3.org/TR/2001/REC-SVG-20010904/DTD/svg10.dtd">
<svg version="1.0" xmlns="http://www.w3.org/2000/svg" width="2550px" height="2475px" viewBox="0 0 12000 11650" preserveAspectRatio="xMidYMid meet">
<g id="layer101" fill="#606062" stroke="none">
 <path d="M9640 11305 c0 -25 370 -1783 390 -1857 l11 -38 204 0 c158 0 205 3 205 13 0 6 -9 52 -20 101 -11 50 -20 94 -20 99 0 5 36 -24 79 -65 159 -150 344 -206 544 -163 191 40 337 198 383 415 12 57 15 111 11 220 -6 175 -27 263 -94 400 -39 78 -62 110 -133 180 -52 53 -108 97 -145 117 -182 95 -406 108 -564 33 -66 -31 -158 -111 -192 -167 -14 -23 -25 -31 -31 -25 -6 6 -45 175 -88 376 -44 201 -82 371 -85 376 -4 6 -93 10 -231 10 l-224 0 0 -25z m1085 -864 c82 -37 173 -158 209 -280 18 -62 21 -206 6 -263 -16 -55 -69 -120 -120 -146 -38 -20 -56 -23 -122 -19 -65 3 -85 9 -134 38 -171 102 -261 372 -183 549 58 130 206 182 344 121z"/>
 <path d="M8738 10810 c-270 -32 -472 -196 -533 -434 -75 -295 38 -644 271 -834 60 -49 192 -113 284 -137 95 -25 344 -31 437 -12 234 50 373 213 402 472 11 90 0 271 -19 320 l-10 25 -473 0 c-315 0 -476 3 -483 10 -17 17 1 105 31 156 57 97 154 139 320 137 118 -1 219 -18 335 -58 41 -14 80 -25 88 -25 16 0 15 24 -15 208 l-16 102 -51 15 c-90 26 -192 44 -303 55 -120 11 -166 11 -265 0z m480 -926 c2 -61 -1 -77 -26 -125 -23 -45 -37 -59 -86 -83 -115 -59 -241 -33 -335 69 -45 49 -101 155 -101 193 l0 22 273 -2 272 -3 3 -71z"/>
 <path d="M2638 10791 c-240 -53 -414 -212 -463 -426 -18 -77 -21 -271 -6 -351 31 -162 94 -279 210 -394 92 -92 174 -142 301 -185 124 -42 308 -61 450 -45 193 21 314 74 425 185 119 118 166 248 167 450 1 377 -220 658 -592 755 -124 32 -371 37 -492 11z m376 -319 c94 -42 184 -167 221 -307 22 -86 20 -242 -4 -305 -42 -111 -123 -170 -232 -170 -89 0 -145 25 -214 94 -111 112 -160 244 -153 416 4 110 27 169 89 231 69 69 191 86 293 41z"/>
 <path d="M5958 10784 c-78 -19 -132 -47 -190 -102 -91 -85 -133 -217 -111 -346 49 -287 342 -435 843 -424 l165 3 3 -52 c5 -93 -46 -159 -145 -189 -101 -30 -296 -11 -456 46 -45 16 -84 27 -86 24 -4 -4 7 -88 30 -223 11 -61 13 -64 53 -81 144 -64 483 -85 658 -42 170 42 290 127 344 245 27 57 29 71 28 177 -1 101 -9 156 -68 445 -37 182 -72 368 -79 415 l-12 85 -189 3 -189 2 7 -97 8 -97 -64 64 c-36 36 -87 77 -115 93 -114 61 -302 84 -435 51z m439 -296 c100 -47 194 -177 209 -292 l7 -48 -159 4 c-174 5 -241 21 -306 76 -74 62 -79 183 -10 245 56 51 169 57 259 15z"/>
 <path d="M1290 10775 c-83 -18 -212 -83 -277 -140 -70 -61 -127 -151 -160 -248 -24 -74 -27 -97 -27 -232 0 -143 1 -155 32 -245 88 -263 297 -443 586 -507 89 -20 353 -23 446 -4 95 19 220 60 226 75 5 14 -81 285 -95 299 -5 5 -42 -2 -87 -18 -320 -108 -604 42 -621 329 -15 225 121 366 354 366 60 0 179 -23 236 -45 14 -6 17 -2 17 20 0 53 -43 300 -54 312 -6 7 -65 22 -130 33 -139 24 -346 26 -446 5z"/>
 <path d="M3855 10760 c-5 -9 11 -90 145 -720 33 -157 72 -339 85 -405 14 -66 31 -142 38 -170 l12 -50 203 -3 202 -2 0 32 c-1 18 -9 69 -20 113 -10 44 -17 81 -15 83 1 2 38 -29 81 -68 91 -82 225 -154 319 -171 88 -16 238 -6 307 20 67 26 146 93 183 156 14 25 35 82 47 128 39 153 11 367 -120 942 l-27 120 -229 3 -229 2 6 -42 c3 -24 36 -185 73 -358 76 -363 84 -455 46 -526 -31 -61 -81 -88 -158 -87 -150 1 -265 108 -335 310 -11 32 -49 195 -85 363 -35 168 -67 313 -70 323 -5 15 -25 17 -229 17 -131 0 -226 -4 -230 -10z"/>
 <path d="M7270 10750 c0 -11 11 -73 25 -138 14 -64 95 -443 180 -842 193 -909 205 -963 210 -968 9 -9 436 -5 445 4 5 5 1 46 -10 99 -42 196 -303 1430 -336 1590 -20 94 -41 193 -47 220 l-12 50 -227 3 c-224 2 -228 2 -228 -18z"/>
 <path d="M606 8277 c-22 -34 -121 -348 -171 -540 -137 -529 -205 -1106 -191 -1627 15 -590 111 -1160 283 -1685 263 -805 662 -1504 1204 -2110 118 -132 399 -412 524 -521 670 -587 1417 -996 2276 -1244 1039 -301 2209 -301 3244 -1 1004 290 1847 789 2580 1525 489 491 849 1003 1147 1631 116 245 264 618 252 637 -2 3 -24 14 -49 24 -54 20 -66 13 -84 -48 -7 -24 -42 -117 -77 -207 -393 -993 -1055 -1861 -1909 -2501 -612 -459 -1307 -794 -2032 -979 -917 -234 -1899 -241 -2811 -21 -1407 341 -2644 1206 -3452 2415 -555 830 -886 1797 -960 2800 -22 300 -11 759 25 1085 44 388 157 886 280 1227 21 57 35 109 32 117 -3 7 -26 21 -51 29 -45 15 -47 15 -60 -6z"/>
 <path d="M5849 8106 c-631 -91 -1156 -466 -1449 -1036 -50 -99 -52 -104 -34 -117 71 -54 1058 -627 1092 -635 8 -2 26 28 46 78 82 201 214 322 431 395 59 20 90 24 190 24 105 -1 130 -4 200 -28 88 -31 73 -23 820 -454 779 -448 1701 -980 1952 -1124 123 -70 225 -123 228 -118 4 5 4 17 1 27 -6 19 -248 1284 -291 1520 -15 78 -21 95 -44 111 -14 10 -300 177 -636 371 -335 194 -761 441 -945 548 -350 203 -480 272 -606 322 -94 38 -262 84 -379 106 -124 22 -450 28 -576 10z"/>
 <path d="M1303 7692 c-219 -65 -358 -272 -379 -562 -12 -157 32 -285 131 -389 165 -173 527 -237 736 -131 52 27 132 103 173 164 79 120 130 356 107 498 -32 199 -182 352 -406 413 -94 26 -286 29 -362 7z m253 -327 c140 -33 245 -110 260 -192 23 -120 -54 -260 -152 -279 -58 -11 -203 2 -274 25 -168 53 -238 161 -196 304 32 109 101 157 226 157 41 0 103 -7 136 -15z"/>
 <path d="M2890 7266 c0 -4 41 -219 90 -479 50 -260 120 -627 156 -817 55 -283 70 -349 88 -367 11 -12 149 -95 306 -184 376 -214 1085 -617 1385 -789 270 -154 345 -194 469 -245 112 -46 309 -100 444 -121 141 -22 411 -22 549 -1 606 95 1112 440 1412 961 53 91 97 184 90 190 -2 2 -209 122 -459 266 -250 144 -497 286 -548 316 -51 30 -99 54 -106 54 -8 0 -19 -20 -25 -46 -59 -232 -264 -423 -505 -469 -98 -19 -144 -19 -242 0 -99 19 -165 50 -449 215 -220 127 -367 212 -575 332 -52 30 -534 308 -1070 618 -536 310 -983 565 -992 568 -10 2 -18 1 -18 -2z"/>
 <path d="M2519 7223 c-6 -16 -31 -106 -55 -202 -51 -202 -89 -435 -105 -641 -14 -180 -6 -591 16 -750 152 -1129 743 -2081 1682 -2709 861 -575 1955 -768 2973 -525 338 81 649 199 932 355 803 442 1404 1122 1730 1959 72 184 83 221 67 231 -8 5 -19 9 -25 9 -13 0 -12 1 -80 -180 -229 -614 -633 -1175 -1140 -1582 -608 -488 -1285 -759 -2074 -829 -148 -13 -526 -7 -695 11 -596 64 -1184 279 -1680 614 -749 506 -1282 1243 -1523 2107 -183 655 -185 1335 -5 1996 20 72 33 139 30 147 -10 25 -36 19 -48 -11z"/>
 <path d="M1475 6249 c-121 -3 -250 -7 -286 -8 -81 -1 -80 2 -71 -161 l7 -115 53 -3 c28 -2 52 -6 52 -10 0 -4 -18 -20 -40 -37 -54 -39 -71 -67 -77 -130 -6 -53 17 -148 38 -161 6 -3 54 15 108 41 l97 47 -10 54 c-13 73 6 113 66 143 64 30 130 40 325 48 96 3 176 10 179 14 3 5 2 72 -2 149 l-7 140 -106 -2 c-58 -1 -205 -5 -326 -9z"/>
 <path d="M1978 5563 c-10 -2 -18 -10 -18 -18 0 -20 88 -259 97 -263 65 -22 103 -76 103 -143 0 -68 -32 -103 -118 -128 -91 -26 -122 -33 -122 -24 0 3 12 36 26 72 22 55 26 76 22 133 -10 127 -89 236 -201 275 -78 27 -232 25 -318 -5 -136 -47 -223 -125 -250 -226 -16 -57 -5 -175 21 -233 24 -56 57 -92 120 -136 l45 -31 -45 -13 c-24 -7 -47 -16 -52 -21 -13 -13 52 -262 68 -262 21 0 700 158 776 180 84 25 154 79 193 151 29 52 30 58 29 179 -1 105 -5 139 -28 215 -68 224 -142 306 -276 304 -30 -1 -63 -3 -72 -6z m-262 -382 c84 -38 100 -156 30 -217 -67 -58 -186 -74 -251 -34 -48 30 -69 72 -62 127 7 69 53 106 157 129 74 17 79 16 126 -5z"/>
 <path d="M10163 4670 c-60 -21 -94 -44 -139 -92 -90 -94 -171 -277 -181 -403 -10 -132 41 -240 154 -327 163 -123 369 -129 514 -15 124 98 217 311 207 471 -9 137 -87 246 -229 321 -59 31 -73 35 -84 24 -7 -8 -66 -132 -131 -276 -65 -145 -124 -263 -130 -263 -21 0 -71 48 -84 80 -17 40 -8 125 17 158 11 15 40 38 66 52 l47 25 44 133 45 132 -32 0 c-18 -1 -56 -9 -84 -20z m306 -388 c50 -47 61 -94 36 -157 -9 -25 -28 -54 -42 -65 -27 -21 -87 -41 -106 -35 -7 2 -24 6 -39 9 -16 4 -28 13 -28 20 0 16 97 235 112 254 16 18 24 15 67 -26z"/>
 <path d="M2045 4429 c-33 -5 -137 -51 -312 -138 l-263 -130 10 -27 c6 -15 35 -75 66 -135 53 -104 56 -108 80 -99 14 6 110 53 215 106 203 103 252 118 295 90 38 -26 59 -81 45 -126 -17 -58 -65 -94 -266 -196 -104 -53 -192 -99 -195 -101 -6 -6 123 -263 133 -263 20 0 689 343 694 356 5 14 -87 206 -111 231 -8 9 -20 7 -50 -8 -48 -23 -70 -25 -62 -4 41 109 43 169 6 267 -50 133 -153 197 -285 177z"/>
 <path d="M9607 3798 c-142 -153 -181 -264 -124 -360 31 -53 74 -90 245 -212 67 -48 122 -91 122 -95 0 -5 -11 -25 -25 -46 -25 -36 -25 -38 -8 -57 10 -12 47 -40 83 -65 l65 -44 36 42 37 41 61 -41 62 -42 144 76 c80 42 145 78 145 80 0 2 -52 41 -115 87 -63 45 -115 87 -115 92 0 6 18 36 40 67 22 32 40 61 40 66 0 9 -152 123 -164 123 -3 0 -24 -25 -46 -56 -23 -30 -48 -58 -56 -61 -18 -7 -268 172 -282 203 -15 31 -7 51 35 95 l34 36 -68 61 c-37 34 -74 62 -82 62 -8 0 -37 -24 -64 -52z"/>
 <path d="M2266 3274 c-234 -185 -426 -341 -426 -347 0 -12 128 -183 158 -210 22 -20 19 -22 520 371 290 229 352 280 352 293 0 10 -167 229 -174 229 -2 0 -195 -151 -430 -336z"/>
 <path d="M9120 3154 c-55 -53 -100 -100 -100 -105 0 -4 70 -81 157 -171 166 -173 193 -208 193 -248 -1 -57 -59 -110 -121 -110 -51 0 -99 38 -269 212 l-145 149 -103 -97 c-57 -53 -102 -103 -100 -110 3 -13 362 -396 480 -511 l63 -61 99 94 99 95 -37 37 c-45 47 -47 67 -6 59 41 -9 135 10 190 38 55 28 125 101 151 158 34 76 19 168 -40 248 -37 51 -390 419 -402 419 -5 0 -54 -43 -109 -96z"/>
 <path d="M2626 2837 c-214 -205 -391 -378 -394 -385 -3 -11 183 -212 197 -212 4 0 78 68 166 152 373 354 620 592 623 600 4 9 -185 218 -196 218 -4 -1 -182 -168 -396 -373z"/>
 <path d="M3344 2711 c-103 -25 -220 -125 -274 -234 -41 -84 -51 -193 -25 -282 60 -207 318 -383 530 -361 88 9 171 53 241 128 67 73 98 136 115 231 23 135 -18 244 -136 363 -127 127 -307 189 -451 155z m246 -249 c99 -50 105 -168 13 -289 -49 -64 -99 -93 -160 -93 -49 0 -58 4 -95 38 -35 33 -41 45 -46 90 -11 117 115 270 223 272 17 0 46 -8 65 -18z"/>
 <path d="M8290 2453 c-126 -21 -314 -118 -397 -204 -77 -81 -110 -226 -79 -346 22 -87 56 -151 116 -216 74 -81 139 -110 255 -115 138 -6 246 31 382 132 120 88 178 223 155 357 -14 79 -59 198 -78 206 -7 2 -129 -54 -272 -126 -142 -72 -264 -131 -270 -131 -17 0 -35 68 -28 105 8 41 47 90 89 112 24 12 48 14 100 10 l68 -6 97 61 c53 34 106 69 116 79 19 18 19 19 -35 44 -53 24 -144 46 -178 44 -9 -1 -27 -4 -41 -6z m161 -492 c17 -59 5 -103 -41 -145 -49 -44 -96 -54 -155 -31 -45 17 -85 55 -85 81 0 15 223 133 252 133 12 1 21 -12 29 -38z"/>
 <path d="M4295 2211 c-62 -16 -134 -63 -156 -103 -8 -15 9 -27 120 -82 l129 -65 33 25 c40 29 97 31 154 5 53 -24 78 -54 78 -93 0 -65 -45 -70 -261 -28 -143 28 -196 26 -263 -7 -111 -57 -150 -175 -95 -288 33 -66 85 -111 192 -164 182 -90 324 -110 421 -57 61 34 91 62 77 75 -5 5 -58 35 -117 66 l-108 57 -39 -17 c-97 -44 -227 24 -192 100 10 21 18 25 56 25 25 0 90 -11 146 -25 139 -33 208 -40 269 -25 65 15 133 74 156 135 21 54 17 143 -10 198 -52 110 -237 217 -448 262 -74 16 -96 17 -142 6z"/>
 <path d="M7380 2031 c-107 -21 -135 -30 -138 -43 -2 -10 15 -120 38 -244 43 -242 43 -270 0 -309 -24 -22 -89 -29 -119 -13 -56 30 -71 74 -120 352 -16 93 -34 173 -39 178 -8 8 -204 -20 -264 -38 -24 -7 -23 -42 7 -199 51 -263 56 -303 40 -341 -28 -67 -118 -79 -174 -24 -34 35 -42 61 -87 309 l-38 203 -50 -5 c-28 -3 -93 -13 -143 -22 l-93 -18 0 -31 c0 -43 128 -738 137 -747 5 -4 55 1 113 11 167 30 154 23 147 81 -7 56 -2 59 51 26 61 -39 108 -50 197 -45 109 6 181 39 224 104 16 25 32 51 34 57 3 9 11 8 28 -2 93 -57 114 -64 184 -69 132 -8 242 44 286 136 35 71 30 169 -24 461 -25 134 -49 247 -54 251 -4 4 -69 -5 -143 -19z"/>
 <path d="M5237 1917 c-52 -16 -103 -60 -129 -110 -27 -52 -30 -146 -5 -193 27 -52 93 -101 176 -130 180 -64 285 -105 315 -122 37 -22 38 -53 3 -90 -20 -22 -28 -24 -82 -19 -75 5 -120 28 -146 72 -18 29 -27 34 -72 40 -29 3 -90 5 -137 3 -98 -3 -104 -10 -75 -86 51 -133 199 -197 481 -209 159 -7 215 7 275 69 57 59 74 118 104 364 16 129 35 239 46 269 10 27 15 52 11 56 -10 11 -237 33 -256 26 -9 -4 -24 -22 -33 -41 l-16 -35 -37 33 c-57 51 -118 83 -190 100 -76 18 -179 19 -233 3z m349 -203 c56 -45 76 -89 70 -153 -2 -29 -7 -56 -10 -59 -11 -10 -207 81 -237 110 -33 33 -36 56 -14 98 19 36 28 40 97 37 46 -3 65 -9 94 -33z"/>
 </g>
<g id="layer102" fill="#057c66" stroke="none">
 <path d="M9640 11301 c0 -11 9 -59 20 -108 17 -76 93 -433 250 -1173 21 -102 55 -264 75 -360 21 -96 41 -192 46 -212 l10 -38 204 0 c113 0 205 3 205 8 0 4 -10 51 -22 105 -12 53 -19 100 -15 103 3 3 37 -25 74 -62 113 -113 222 -164 381 -179 83 -8 198 13 278 51 115 54 219 189 260 334 24 87 29 288 10 396 -63 363 -285 594 -611 636 -199 25 -371 -39 -482 -182 -25 -33 -50 -60 -54 -60 -10 0 -11 0 -74 300 -30 146 -65 309 -77 363 l-21 97 -229 0 c-218 0 -228 -1 -228 -19z m1103 -868 c103 -56 187 -198 208 -351 29 -211 -66 -352 -238 -352 -110 1 -191 46 -268 151 -63 85 -89 171 -90 289 0 112 22 174 85 235 72 70 202 82 303 28z"/>
 <path d="M2671 10795 c-269 -49 -447 -208 -497 -445 -20 -92 -14 -305 10 -395 27 -101 99 -234 165 -307 160 -175 379 -258 676 -258 233 0 402 59 529 185 122 120 172 267 163 483 -5 149 -22 216 -79 332 -60 120 -186 246 -313 312 -49 25 -115 53 -145 62 -150 45 -363 57 -509 31z m359 -331 c136 -74 221 -248 222 -455 1 -152 -50 -256 -146 -300 -61 -28 -167 -25 -231 5 -98 45 -194 176 -230 312 -17 66 -20 221 -5 276 13 45 66 125 101 150 76 56 198 62 289 12z"/>
 <path d="M8690 10803 c-71 -12 -189 -60 -256 -105 -150 -100 -229 -247 -249 -463 -27 -297 154 -639 405 -763 136 -66 235 -87 425 -87 138 0 170 3 230 22 236 74 356 260 355 552 -1 64 -6 145 -13 181 l-12 65 -485 5 -485 5 2 42 c2 52 35 128 71 166 65 69 185 103 327 93 92 -6 266 -43 331 -71 61 -25 67 -22 59 38 -7 62 -34 215 -41 239 -13 42 -273 89 -487 87 -84 -1 -163 -4 -177 -6z m525 -935 c0 -80 -2 -90 -30 -129 -37 -53 -103 -88 -177 -96 -133 -14 -260 79 -324 236 -13 34 -22 66 -19 72 4 6 111 8 278 7 l272 -3 0 -87z"/>
 <path d="M5968 10785 c-175 -43 -280 -151 -309 -317 -23 -136 21 -267 119 -360 145 -139 412 -209 743 -195 l147 7 6 -33 c9 -46 -18 -128 -51 -159 -54 -50 -91 -62 -203 -66 -123 -5 -242 14 -361 58 -58 21 -79 25 -79 15 0 -17 39 -245 46 -267 9 -30 161 -70 336 -88 182 -20 404 14 522 78 80 43 142 106 178 180 31 63 33 72 32 177 0 95 -9 154 -68 439 -37 181 -73 370 -79 420 l-13 91 -184 0 -185 0 4 -95 3 -95 -69 66 c-37 36 -92 78 -122 93 -119 61 -286 81 -413 51z m390 -280 c63 -19 125 -65 174 -130 40 -53 78 -149 78 -198 l0 -29 -157 4 c-187 5 -244 20 -309 83 -95 91 -74 217 46 269 45 20 103 20 168 1z"/>
 <path d="M1305 10776 c-240 -57 -400 -204 -461 -426 -25 -90 -25 -299 0 -390 116 -429 530 -647 1053 -554 96 17 210 50 218 64 6 9 -77 272 -93 298 -7 10 -25 7 -88 -14 -93 -32 -245 -44 -321 -25 -136 35 -247 132 -283 247 -27 89 -27 195 1 270 69 183 288 256 523 174 33 -11 61 -18 64 -15 9 9 -42 317 -54 330 -40 40 -437 69 -559 41z"/>
 <path d="M3873 10763 c-19 -7 -16 -46 18 -199 16 -76 45 -211 64 -299 18 -88 66 -313 105 -500 39 -187 74 -343 76 -347 3 -5 95 -8 205 -8 l199 0 0 25 c0 13 -9 63 -20 111 -11 48 -18 89 -16 91 3 3 43 -28 89 -69 101 -88 178 -132 283 -158 181 -47 373 -5 469 102 109 120 137 307 89 583 -18 108 -130 633 -139 658 -7 15 -27 17 -232 17 l-226 0 6 -37 c3 -21 36 -180 73 -353 94 -442 93 -531 -5 -597 -51 -34 -109 -39 -191 -14 -58 18 -79 31 -123 74 -100 101 -134 197 -232 667 -26 124 -52 233 -57 243 -8 16 -27 18 -216 16 -114 -1 -213 -3 -219 -6z"/>
 <path d="M7275 10761 c-6 -10 8 -80 100 -511 25 -118 57 -267 70 -330 13 -63 52 -243 85 -400 33 -157 76 -359 95 -450 20 -91 41 -187 48 -215 l12 -50 223 -3 222 -2 0 25 c0 24 -12 85 -106 520 -18 88 -57 268 -84 400 -28 132 -66 312 -85 400 -18 88 -52 250 -75 360 -23 110 -45 214 -49 230 l-7 30 -221 3 c-137 1 -224 -1 -228 -7z"/>
 <path d="M5910 8109 c-638 -56 -1223 -465 -1524 -1066 -37 -74 -34 -84 27 -119 28 -17 174 -103 322 -191 315 -186 707 -411 725 -415 7 -2 20 19 30 49 56 160 182 308 320 375 201 98 396 105 586 18 34 -15 196 -105 360 -200 165 -95 371 -215 459 -265 88 -51 252 -145 365 -210 113 -65 365 -210 560 -323 195 -112 416 -239 490 -282 427 -247 662 -381 676 -387 22 -8 19 14 -34 292 -22 116 -88 460 -146 765 -58 305 -110 563 -114 573 -4 10 -52 45 -107 76 -55 32 -230 133 -390 226 -159 92 -342 198 -405 235 -146 84 -363 210 -760 440 -173 101 -362 205 -419 233 -315 149 -656 208 -1021 176z"/>
 <path d="M2895 7248 c2 -13 41 -214 85 -448 45 -234 96 -504 115 -600 19 -96 50 -263 71 -370 20 -107 42 -204 49 -216 7 -11 186 -118 396 -239 211 -120 641 -365 954 -544 740 -422 817 -460 1072 -526 196 -51 486 -70 693 -45 363 44 720 195 995 420 85 70 254 243 316 325 96 125 254 396 239 408 -3 2 -117 68 -255 147 -137 79 -302 173 -365 210 -299 174 -488 280 -497 280 -6 0 -14 -19 -18 -42 -4 -23 -28 -82 -54 -132 -53 -104 -149 -208 -243 -264 -174 -103 -397 -120 -578 -43 -36 15 -353 194 -705 398 -878 508 -861 497 -1450 838 -159 92 -406 234 -547 316 -142 82 -262 149 -268 149 -6 0 -8 -10 -5 -22z"/>
 </g>

</svg>